<?xml version="1.0" encoding="UTF-8" standalone="no"?>
<svg width="596px" height="596px" viewBox="0 0 596 596" version="1.1" xmlns="http://www.w3.org/2000/svg" xmlns:xlink="http://www.w3.org/1999/xlink" xmlns:sketch="http://www.bohemiancoding.com/sketch/ns">
    <!-- Generator: Sketch 3.4 (15588) - http://www.bohemiancoding.com/sketch -->
    <title>3 heads group</title>
    <desc>Created with Sketch.</desc>
    <defs></defs>
    <g id="Page-1" stroke="none" stroke-width="1" fill="none" fill-rule="evenodd" sketch:type="MSPage">
        <g id="3-heads-group" sketch:type="MSArtboardGroup">
            <path d="M0,297.9 C0,134.2 133.9,0.3 297.6,0.3 C461.3,0.3 595.2,134.2 595.2,297.9 C595.3,461.6 461.3,595.6 297.6,595.6 C133.9,595.6 0,461.6 0,297.9 Z" id="Shape" fill="#ECF2F9" sketch:type="MSShapeGroup"></path>
            <g id="Head-3" sketch:type="MSLayerGroup" transform="translate(306.000000, 111.000000)">
                <path d="M203.993281,23.8239056 L188.996641,23.8239056 C188.996641,10.4417118 177.023516,-1.42108547e-14 164.989922,-1.42108547e-14 L51.0033595,-1.42108547e-14 C39.0302352,-1.42108547e-14 28.5083987,10.4417118 28.5083987,22.3236596 L28.5083987,29.7648795 C17.9865622,31.2651254 12,40.2065912 12,49.0880472 L12,114.55878 L28.5083987,114.55878 L28.5083987,122 L188.996641,122 L188.996641,120.499754 L228,120.499754 L228,49.1480571 C228,34.2656173 217.478163,23.8239056 203.993281,23.8239056 L203.993281,23.8239056 Z" id="Shape" fill="#A9BFCD" sketch:type="MSShapeGroup"></path>
                <path d="M216.340376,105.843083 L216.340376,105.843083 C202.834244,105.843083 192.295827,93.8675859 192.295827,81.8316063 L192.295827,68.3440513 C192.295827,68.3440513 190.781687,65.3199358 190.781687,68.3440513 C186.299831,75.8438577 178.789695,81.8316063 169.765418,81.8316063 L36.0365408,81.8316063 C30.0405449,81.8316063 24.0445491,86.3072972 24.0445491,93.8071036 L24.0445491,107.294659 C10.538417,107.294659 -1.42108547e-14,119.270156 -1.42108547e-14,131.306135 C-1.42108547e-14,144.79369 10.538417,155.317612 24.0445491,155.317612 C25.5586894,204.852624 63.1093706,246.827346 112.652044,249.851462 C168.251278,252.875577 214.826236,209.328315 214.826236,155.317612 L214.826236,155.317612 C228.332368,155.317612 238.870785,143.342115 238.870785,131.306135 C240.384925,116.367005 228.332368,105.843083 216.340376,105.843083 L216.340376,105.843083 Z" id="Shape" fill="#C4D4DF" sketch:type="MSShapeGroup"></path>
            </g>
            <g id="Head-1" sketch:type="MSLayerGroup" transform="translate(48.000000, 84.000000)">
                <path d="M26.978662,191.864075 L21.6744609,191.864075 C10.0035973,191.864075 -2.84217094e-14,181.853776 -2.84217094e-14,170.175093 L-2.84217094e-14,163.50156 C-2.84217094e-14,151.822877 10.0035973,141.812577 21.6744609,141.812577 L21.6744609,66.7353305 C21.6744609,46.7147313 38.3471231,30.0308987 58.3543178,30.0308987 L70.0251814,30.0308987 C70.0251814,30.0308987 91.6996423,0 123.377701,0 C181.732018,0 196.737414,28.3625154 196.737414,28.3625154 L208.408278,28.3625154 C228.415473,28.3625154 245.088135,45.0463481 245.088135,65.0669472 L245.088135,105.108145 C245.088135,110.113295 246.755401,116.786828 251.7572,120.123595 C258.426265,126.797128 260.093531,138.475811 255.091732,145.149344 L253.424466,146.817727 C251.7572,151.822877 250.089934,158.49641 251.7572,163.50156 L253.424466,165.169943 C255.706554,173.162604 251.741377,182.718127 245.270002,187.953755 C246.225917,190.176953 246.755401,192.627022 246.755401,195.200842 C246.755401,205.336491 238.544335,213.553057 228.415473,213.553057 C226.503999,213.553057 224.660826,213.260437 222.928248,212.717519 C211.51591,250.444567 175.820991,278.321561 133.381298,276.951621 C93.613852,275.625152 61.223851,248.987639 49.6182271,212.970481 C48.1476414,213.350755 46.605524,213.553057 45.016188,213.553057 C34.8873252,213.553057 26.6762596,205.336491 26.6762596,195.200842 C26.6762596,194.061348 26.7800412,192.946109 26.978662,191.864075 Z" id="Shape" fill="#EBF2F9" sketch:type="MSShapeGroup"></path>
                <path d="M123.377701,-1.42108547e-14 C181.732018,-1.42108547e-14 196.737414,28.3826087 196.737414,28.3826087 L208.408278,28.3826087 C228.415473,28.3826087 245.088135,45.0782609 245.088135,65.1130435 L245.088135,105.182609 C245.088135,110.191304 246.755401,116.869565 251.7572,120.208696 L251.7572,120.208696 C258.426265,126.886957 260.093531,138.573913 255.091732,145.252174 L253.424466,146.921739 C251.7572,151.930435 250.089934,158.608696 251.7572,163.617391 L253.424466,165.286957 C256.758998,176.973913 246.755401,192 235.084538,192 L21.6744609,192 C10.0035973,192 0,181.982609 0,170.295652 L0,163.617391 C0,151.930435 10.0035973,141.913043 21.6744609,141.913043 L21.6744609,141.913043 L21.6744609,66.7826087 C21.6744609,46.7478261 38.3471231,30.0521739 58.3543178,30.0521739 L70.0251814,30.0521739 C70.0251814,30.0521739 91.6996423,-1.42108547e-14 123.377701,-1.42108547e-14 L123.377701,-1.42108547e-14 Z" id="Shape" fill="#A9BFCD" sketch:type="MSShapeGroup"></path>
                <path d="M48.9337175,212.943689 C60.535168,248.975917 92.9135213,275.624577 132.666667,276.951601 C175.091098,278.322114 210.773181,250.433455 222.181415,212.690621 C223.91337,213.233766 225.755881,213.526509 227.666667,213.526509 C237.791887,213.526509 246,205.306504 246,195.166614 C246,185.026724 237.791887,176.806719 227.666667,176.806719 C227.104851,176.806719 226.548937,176.832027 226,176.881566 L226,155.108661 C226,148.432336 221,143.425092 216,143.425092 C172.666667,138.417848 142.666667,111.712546 124.333333,90.0144882 C119.333333,81.6690814 112.666667,80 106,80 C72.6666667,80 44.3333333,108.374383 44.3333333,141.756011 L44.3333333,176.806719 C34.2081129,176.806719 26,185.026724 26,195.166614 C26,205.306504 34.2081129,213.526509 44.3333333,213.526509 C45.9220978,213.526509 47.4636606,213.324123 48.9337175,212.943689 Z" id="Shape" fill="#C4D4DF" sketch:type="MSShapeGroup"></path>
            </g>
            <g id="Head-2" sketch:type="MSLayerGroup" transform="translate(135.000000, 231.000000)">
                <path d="M64.4086489,286.557377 L15.5464718,286.557377 C7.77323588,286.557377 -2.84217094e-14,280.293828 -2.84217094e-14,270.898504 L-2.84217094e-14,234.883096 C-2.84217094e-14,162.85228 18.6557661,125.270985 34.2022379,106.480337 C45.0847681,45.4107319 97.9427721,0 160.128659,0 C223.869193,0 278.281845,48.5425065 286.055081,111.177999 C304.710847,136.232196 326.475907,178.511153 324.92126,234.883096 L324.92126,270.898504 C324.92126,278.727941 318.702671,286.557377 309.374788,286.557377 L257.434728,286.557377 C239.392063,321.458333 203.179852,345 160.921688,345 C118.663525,345 82.451314,321.458333 64.4086489,286.557377 Z" id="Shape" stroke="#EBF2F9" stroke-width="30" fill="#A5BFCD" sketch:type="MSShapeGroup"></path>
                <path d="M286.055081,111.349727 C278.281845,48.6174863 223.869193,0 160.128659,0 C97.9427721,0 45.0847681,45.4808743 34.2022379,106.644809 C18.6557661,125.464481 0,163.103825 0,235.245902 L0,271.31694 C0,280.726776 7.77323588,287 15.5464718,287 L309.374788,287 C318.702671,287 324.92126,279.15847 324.92126,271.31694 L324.92126,235.245902 C326.475907,178.786885 304.710847,136.442623 286.055081,111.349727 L286.055081,111.349727 Z" id="Shape" fill="#A5BFCD" sketch:type="MSShapeGroup"></path>
                <path d="M51.8888889,229.54791 L51.8888889,235.788563 C51.8888889,296.634935 100.111111,345 160.777778,345 C221.444444,345 269.666667,296.634935 269.666667,235.788563 L269.666667,229.499947 C282.687802,228.694596 293,217.847785 293,204.585296 C293,191.322806 282.687802,180.475995 269.666667,179.670644 L269.666667,170.261701 C269.666667,165.581211 266.555556,160.900721 261.888889,159.340557 C235.444444,153.099904 216.777778,123.4568 210.555556,104.734839 C207.444444,100.054349 201.222222,100.054349 199.666667,103.174676 C185.666667,121.896636 143.666667,156.220231 61.2222222,159.340557 C55,159.340557 51.8888889,164.021048 51.8888889,170.261701 L51.8888889,179.622681 C38.1431351,179.622681 27,190.798824 27,204.585296 C27,218.371767 38.1431351,229.54791 51.8888889,229.54791 Z" id="Shape" fill="#C4D4DF" sketch:type="MSShapeGroup"></path>
            </g>
        </g>
    </g>
</svg>