<?xml version="1.0" encoding="UTF-8"?>
<svg width="193px" height="53px" viewBox="0 0 193 53" version="1.1" xmlns="http://www.w3.org/2000/svg" xmlns:xlink="http://www.w3.org/1999/xlink">
    <!-- Generator: Sketch 47.1 (45422) - http://www.bohemiancoding.com/sketch -->
    <title>SepaLogo</title>
    <desc>Created with Sketch.</desc>
    <defs></defs>
    <g id="Page-1" stroke="none" stroke-width="1" fill="none" fill-rule="evenodd">
        <g id="SepaLogo" fill-rule="nonzero">
            <path d="M42.6875,16.7485 L29.54125,16.7485 C29.54125,14.591 29.2875,13.1435 28.7825,12.406 C28,11.316 25.84125,10.76975 22.3075,10.76975 C18.875,10.76975 16.6,11.0835 15.49,11.71225 C14.38,12.3435 13.82375,13.71475 13.82375,15.826 C13.82375,17.73725 14.31625,18.99725 15.3025,19.59975 C16.00875,20.0285 16.9425,20.27975 18.105,20.35475 L20.75625,20.54225 C26.43875,20.9185 29.9875,21.18475 31.4025,21.336 C35.89625,21.7885 39.15375,22.9835 41.175,24.91975 C42.765,26.431 43.71375,28.406 44.01625,30.8435 C44.19375,32.30225 44.28125,33.9535 44.28125,35.78725 C44.28125,40.01475 43.8775,43.10975 43.07125,45.071 C41.6075,48.671 38.31875,50.94475 33.2025,51.89975 C31.05875,52.3035 27.78,52.50475 23.36875,52.50475 C16.00625,52.50475 10.87625,52.06725 7.97875,51.186 C4.42375,50.10725 2.07875,47.921 0.945,44.62975 C0.3125,42.79725 0,39.74475 0,35.47225 L13.14625,35.47225 C13.14625,35.9485 13.1475,36.3135 13.1475,36.56475 C13.1475,38.84475 13.8025,40.30975 15.11125,40.9635 C16.0175,41.4135 17.11125,41.64975 18.3975,41.6785 L23.23125,41.6785 C25.6975,41.6785 27.27125,41.55225 27.95,41.2985 C29.15875,40.8235 29.9525,40.0585 30.33125,38.99975 C30.5325,38.34725 30.6325,37.50475 30.6325,36.47225 C30.6325,34.161 29.78875,32.75475 28.10375,32.24975 C27.4725,32.051 24.5425,31.77225 19.31,31.421 C15.1075,31.121 12.18875,30.83225 10.555,30.55225 C6.25125,29.74725 3.3825,28.091 1.95125,25.57725 C0.6925,23.44225 0.06375,20.211 0.06375,15.88725 C0.06375,12.596 0.40375,9.956 1.08375,7.971 C1.76375,5.98475 2.86,4.47725 4.3725,3.446 C6.58875,1.86225 9.425,0.9335 12.87625,0.656 C15.74875,0.40475 18.935,0.27725 22.44,0.27725 C27.9575,0.27725 31.89,0.59475 34.23375,1.2235 C39.955,2.761 42.815,7.066 42.815,14.141 C42.815,14.721 42.7725,15.5885 42.6875,16.7485" id="path5689" fill="#10298E"></path>
            <path d="M100.49825,52.50525 L100.49825,0.00025 L121.0945,0.00025 L124.327,0.00025 L126.82575,0.00025 C130.437,0.00025 133.192,0.294 135.08575,0.884 C139.41575,2.24025 142.32075,5.019 143.8095,9.2165 C144.577,11.42025 144.962,14.73775 144.962,19.16775 C144.962,24.494 144.53575,28.32025 143.692,30.6515 C142.00325,35.259 138.52825,37.914 133.2795,38.6015 C132.662,38.70525 130.03575,38.7965 125.3995,38.8715 L123.0545,38.949 L114.6295,38.949 L114.6295,52.50525 L100.49825,52.50525 Z M114.6295,26.769 L123.43825,26.769 C126.232,26.669 127.93075,26.454 128.542,26.11775 C129.377,25.659 129.93825,24.739 130.217,23.36025 C130.39575,22.44275 130.4845,21.07775 130.4845,19.26525 C130.4845,17.044 130.307,15.39775 129.95075,14.32275 C129.44325,12.8165 128.22575,11.90025 126.29825,11.5665 C125.91575,11.5165 125.00325,11.489 123.557,11.489 L114.6295,11.489 L114.6295,26.769 Z" id="path5693" fill="#10298E"></path>
            <path d="M175.12587,43.43125 L156.23212,43.43125 L153.69337,52.505 L139.07337,52.505 L154.84962,0 L176.16587,0 L192.13462,52.505 L177.82212,52.505 L175.12587,43.43125 Z M172.31962,33.2025 L165.69837,10.4425 L159.27337,33.2025 L172.31962,33.2025 Z" id="path5697" fill="#10298E"></path>
            <path d="M80.99412,7.38675 C86.82162,7.38675 92.02412,10.07175 95.44287,14.27675 L98.48912,7.7455 C93.72537,3.243 87.24162,0.46675 80.09037,0.46675 C68.95537,0.46675 59.43037,7.19175 55.52162,16.71175 L49.58162,16.71175 L46.07412,24.2305 L53.71537,24.2305 C53.65787,24.928 53.62037,25.6255 53.62037,26.338 C53.62037,27.19925 53.66537,28.05175 53.75037,28.893 L49.91037,28.893 L46.40412,36.41425 L55.70412,36.41425 C59.72412,45.693 69.13037,52.20675 80.09037,52.20675 C85.61412,52.20675 90.73912,50.55175 94.98287,47.72425 L94.98287,38.50675 C91.56537,42.398 86.56662,44.85675 80.99412,44.85675 C74.48037,44.85675 68.75037,41.498 65.41412,36.41425 L84.88662,36.41425 L88.39412,28.893 L62.54912,28.893 C62.41537,27.988 62.34412,27.063 62.34412,26.1205 C62.34412,25.483 62.37662,24.853 62.43912,24.2305 L90.56787,24.2305 L94.07412,16.71175 L64.87037,16.71175 C68.10037,11.138 74.11037,7.38675 80.99412,7.38675" id="path5701" fill="#FFBE00"></path>
            <path d="M80.99412,7.612 C86.54787,7.612 91.75037,10.0945 95.26787,14.4195 L95.49537,14.6995 L95.64912,14.37325 L98.69412,7.842 L98.76162,7.69325 L98.64537,7.58075 C93.63787,2.84825 87.04787,0.242 80.09037,0.242 C74.65662,0.242 69.42912,1.8295 64.97037,4.83325 C60.61662,7.76575 57.27662,11.8445 55.31412,16.62575 L55.52162,16.48575 L49.58162,16.48575 L49.43662,16.48575 L49.37662,16.61575 L45.87037,24.13575 L45.72037,24.457 L46.07412,24.457 L53.71537,24.457 L53.49037,24.212 C53.42662,24.99325 53.39537,25.687 53.39537,26.33825 C53.39537,27.182 53.43912,28.05075 53.52537,28.91575 L53.75037,28.66825 L49.91037,28.66825 L49.76787,28.66825 L49.70787,28.79825 L46.19912,36.31825 L46.05037,36.6395 L46.40412,36.6395 L55.70412,36.6395 L55.49662,36.50325 C59.68912,46.1795 69.34287,52.432 80.09037,52.432 C85.47787,52.432 90.66912,50.87075 95.10787,47.91325 L95.20662,47.847 L95.20662,47.7245 L95.20662,38.507 L95.20662,37.90825 L94.81287,38.35825 C91.31162,42.3445 86.27537,44.6295 80.99412,44.6295 C74.78162,44.6295 69.02787,41.51075 65.60162,36.2895 L65.41412,36.6395 L84.88662,36.6395 L85.03162,36.6395 L85.09162,36.51075 L88.59912,28.98825 L88.74912,28.66825 L88.39412,28.66825 L62.54912,28.66825 L62.77287,28.86075 C62.63912,27.9495 62.57037,27.0295 62.57037,26.12075 C62.57037,25.502 62.60162,24.8745 62.66412,24.25325 L62.43912,24.457 L90.56787,24.457 L90.71287,24.457 L90.77287,24.327 L94.27912,16.807 L94.43037,16.48575 L94.07412,16.48575 L64.87037,16.48575 L65.06537,16.8245 C68.35787,11.142 74.46287,7.612 80.99412,7.612 L80.99412,7.612 Z M64.87037,16.937 L94.07412,16.937 L93.86912,16.61575 L90.36412,24.13575 L90.56787,24.00575 L62.43912,24.00575 L62.23537,24.00575 L62.21287,24.2095 C62.15037,24.8445 62.11912,25.48825 62.11912,26.12075 C62.11912,27.05075 62.18912,27.99575 62.32537,28.927 L62.35537,29.1195 L62.54912,29.1195 L88.39412,29.1195 L88.19037,28.79825 L84.68412,36.31825 L84.88662,36.18825 L65.41412,36.18825 L64.99537,36.18825 L65.22537,36.53575 C68.73412,41.88825 74.63037,45.0795 80.99412,45.0795 C86.40412,45.0795 91.56537,42.7395 95.15287,38.65575 L94.75662,38.507 L94.75662,47.7245 L94.85662,47.53825 C90.49287,50.4445 85.38787,51.98075 80.09037,51.98075 C69.52162,51.98075 60.03162,45.8345 55.91162,36.32325 L55.85162,36.18825 L55.70412,36.18825 L46.40412,36.18825 L46.61037,36.51075 L50.11537,28.98825 L49.91037,29.1195 L53.75037,29.1195 L53.99912,29.1195 L53.97537,28.87075 C53.89037,28.02075 53.84537,27.167 53.84537,26.33825 C53.84537,25.70075 53.87662,25.017 53.94037,24.2495 L53.96037,24.00575 L53.71537,24.00575 L46.07412,24.00575 L46.27787,24.327 L49.78537,16.807 L49.58162,16.937 L55.52162,16.937 L55.67287,16.937 L55.72912,16.797 C57.66037,12.09825 60.94287,8.09075 65.22287,5.207 C69.60537,2.25575 74.74787,0.6945 80.09037,0.6945 C86.93287,0.6945 93.41037,3.25575 98.33412,7.9095 L98.28412,7.6495 L95.24037,14.182 L95.61912,14.1345 C92.01287,9.70325 86.68412,7.16075 80.99412,7.16075 C74.30037,7.16075 68.04912,10.777 64.67412,16.59825 L64.47787,16.937 L64.87037,16.937 Z" id="path5705" fill="#10298E"></path>
        </g>
    </g>
</svg>
