<?xml version="1.0" encoding="UTF-8" standalone="no"?>
<svg width="32px" height="32px" viewBox="0 0 32 32" version="1.1" xmlns="http://www.w3.org/2000/svg" xmlns:xlink="http://www.w3.org/1999/xlink">
    <!-- Generator: Sketch 3.7 (28169) - http://www.bohemiancoding.com/sketch -->
    <title>shared-red</title>
    <desc>Created with Sketch.</desc>
    <defs></defs>
    <g id="ICON" stroke="none" stroke-width="1" fill="none" fill-rule="evenodd">
        <g id="Col-2" transform="translate(0.000000, -190.000000)" stroke="#D04437" stroke-width="2">
            <g id="Group-2-Copy" transform="translate(2.000000, 192.000000)">
                <path d="M5,14 L23,5" id="Line" stroke-linecap="square"></path>
                <path d="M5,14 L23,23" id="Line-Copy" stroke-linecap="square"></path>
                <path d="M5,19 C7.76142375,19 10,16.7614237 10,14 C10,11.2385763 7.76142375,9 5,9 C3.25105258,9 1.71183607,9.89796474 0.818243283,11.2580014 C0.300936967,12.0453349 0,12.9875237 0,14 C0,16.7614237 2.23857625,19 5,19 Z" id="Oval-1" fill="#D04437"></path>
                <path d="M23,10 C25.7614237,10 28,7.76142375 28,5 C28,2.23857625 25.7614237,0 23,0 C21.2510526,0 19.7118361,0.897964745 18.8182433,2.25800141 C18.300937,3.04533493 18,3.98752367 18,5 C18,7.76142375 20.2385763,10 23,10 Z" id="Oval-1-Copy-3" fill="#D04437"></path>
                <path d="M23,28 C25.7614237,28 28,25.7614237 28,23 C28,20.2385763 25.7614237,18 23,18 C21.2510526,18 19.7118361,18.8979647 18.8182433,20.2580014 C18.300937,21.0453349 18,21.9875237 18,23 C18,25.7614237 20.2385763,28 23,28 Z" id="Oval-1-Copy-4" fill="#D04437"></path>
            </g>
        </g>
    </g>
</svg>